<svg width="256" height="256" viewBox="0 0 256 256" fill="none" xmlns="http://www.w3.org/2000/svg">
<rect width="256" height="256" fill="#289AE9"/>
<path d="M228.625 199.86H221.432V106.423C221.428 102.612 219.912 98.9579 217.217 96.263C214.522 93.5681 210.868 92.0522 207.057 92.0479H149.557V48.9228C149.553 45.1117 148.037 41.4579 145.342 38.763C142.647 36.0681 138.993 34.5522 135.182 34.5479H48.9322C45.1211 34.5522 41.4673 36.0681 38.7724 38.763C36.0775 41.4579 34.5616 45.1117 34.5572 48.9228V199.86H27.375C25.4688 199.86 23.6406 200.618 22.2927 201.966C20.9448 203.313 20.1875 205.142 20.1875 207.048C20.1875 208.954 20.9448 210.782 22.2927 212.13C23.6406 213.478 25.4688 214.235 27.375 214.235H228.625C230.531 214.235 232.359 213.478 233.707 212.13C235.055 210.782 235.812 208.954 235.812 207.048C235.812 205.142 235.055 203.313 233.707 201.966C232.359 200.618 230.531 199.86 228.625 199.86ZM120.807 135.173C120.807 137.079 120.05 138.907 118.702 140.255C117.354 141.603 115.526 142.36 113.62 142.36H84.8697C82.9635 142.36 81.1353 141.603 79.7874 140.255C78.4395 138.907 77.6822 137.079 77.6822 135.173C77.6822 133.267 78.4395 131.438 79.7874 130.091C81.1353 128.743 82.9635 127.985 84.8697 127.985H113.62C115.526 127.985 117.354 128.743 118.702 130.091C120.05 131.438 120.807 133.267 120.807 135.173ZM70.4947 70.4854H99.2447C101.151 70.4854 102.979 71.2426 104.327 72.5905C105.675 73.9384 106.432 75.7666 106.432 77.6729C106.432 79.5791 105.675 81.4073 104.327 82.7552C102.979 84.1031 101.151 84.8604 99.2447 84.8604H70.4947C68.5885 84.8604 66.7603 84.1031 65.4124 82.7552C64.0645 81.4073 63.3072 79.5791 63.3072 77.6729C63.3072 75.7666 64.0645 73.9384 65.4124 72.5905C66.7603 71.2426 68.5885 70.4854 70.4947 70.4854V70.4854ZM70.4947 163.923H99.2447C101.151 163.923 102.979 164.68 104.327 166.028C105.675 167.376 106.432 169.204 106.432 171.11C106.432 173.017 105.675 174.845 104.327 176.193C102.979 177.541 101.151 178.298 99.2447 178.298H70.4947C68.5885 178.298 66.7603 177.541 65.4124 176.193C64.0645 174.845 63.3072 173.017 63.3072 171.11C63.3072 169.204 64.0645 167.376 65.4124 166.028C66.7603 164.68 68.5885 163.923 70.4947 163.923ZM149.557 106.423H207.057V199.86H149.557V106.423Z" fill="white"/>
<path d="M185.495 163.923H171.12C169.213 163.923 167.385 164.68 166.037 166.028C164.689 167.376 163.932 169.204 163.932 171.11C163.932 173.017 164.689 174.845 166.037 176.193C167.385 177.541 169.213 178.298 171.12 178.298H185.495C187.401 178.298 189.229 177.541 190.577 176.193C191.925 174.845 192.682 173.017 192.682 171.11C192.682 169.204 191.925 167.376 190.577 166.028C189.229 164.68 187.401 163.923 185.495 163.923Z" fill="white"/>
<path d="M171.12 142.36H185.495C187.401 142.36 189.229 141.603 190.577 140.255C191.925 138.907 192.682 137.079 192.682 135.173C192.682 133.267 191.925 131.438 190.577 130.091C189.229 128.743 187.401 127.985 185.495 127.985H171.12C169.213 127.985 167.385 128.743 166.037 130.091C164.689 131.438 163.932 133.267 163.932 135.173C163.932 137.079 164.689 138.907 166.037 140.255C167.385 141.603 169.213 142.36 171.12 142.36Z" fill="white"/>
</svg>
